# xmcd
#
# Track frame offsets: 
#        150
#        23125
#        42652
#        60112
#        77257
#        95502
#        112152
#        123377
#
# Disc length: 1871 seconds
#
# Revision: 12
# Processed by: cddbd v1.5.2PL0 Copyright (c) Steve Scherf et al.
# Submitted via: ExactAudioCopy v1.3
#
DISCID=5d074d08
DTITLE=Michael Bublé - Caught in the act
DYEAR=2005
DGENRE=Jazz
TTITLE0=Feeling good
TTITLE1=Summer wind
TTITLE2=Home
TTITLE3=You and I
TTITLE4=The more I see you
TTITLE5=You'll never find another love like mine (duet with Laura Paus
TTITLE5=ini)
TTITLE6=Can't buy me love
TTITLE7=Smile
EXTD=YEAR: 2005
EXTT0=
EXTT1=
EXTT2=
EXTT3=
EXTT4=
EXTT5=
EXTT6=
EXTT7=
PLAYORDER=
